<mxfile host="drawio-plugin" modified="2024-12-19T09:21:02.208Z" agent="Mozilla/5.0 (Macintosh; Intel Mac OS X 10_15_7) AppleWebKit/537.36 (KHTML, like Gecko) Chrome/122.0.0.0 Safari/537.36" etag="D19SC0YZOxQw8-BAGm39" version="22.1.22" type="embed">
  <diagram name="Page-1" id="R8sYvTYUgStALpB0QBJO">
    <mxGraphModel dx="4890" dy="4230" grid="1" gridSize="10" guides="1" tooltips="1" connect="1" arrows="1" fold="1" page="1" pageScale="1" pageWidth="827" pageHeight="1169" math="0" shadow="0">
      <root>
        <mxCell id="0" />
        <mxCell id="1" parent="0" />
      </root>
    </mxGraphModel>
  </diagram>
</mxfile>
